<?xml version="1.0" encoding="UTF-8" standalone="no"?>
<!-- Generator: Adobe Illustrator 22.1.0, SVG Export Plug-In . SVG Version: 6.00 Build 0)  -->

<svg
   version="1.1"
   id="Layer_1"
   x="0px"
   y="0px"
   viewBox="0 0 511.99999 512.00002"
   xml:space="preserve"
   sodipodi:docname="icon.svg"
   width="512"
   height="512"
   inkscape:version="1.3 (0e150ed6c4, 2023-07-21)"
   inkscape:export-filename="icon-maskable.png"
   inkscape:export-xdpi="96"
   inkscape:export-ydpi="96"
   xmlns:inkscape="http://www.inkscape.org/namespaces/inkscape"
   xmlns:sodipodi="http://sodipodi.sourceforge.net/DTD/sodipodi-0.dtd"
   xmlns="http://www.w3.org/2000/svg"
   xmlns:svg="http://www.w3.org/2000/svg"><defs
   id="defs12" /><sodipodi:namedview
   id="namedview12"
   pagecolor="#ffffff"
   bordercolor="#000000"
   borderopacity="0.25"
   inkscape:showpageshadow="2"
   inkscape:pageopacity="0.0"
   inkscape:pagecheckerboard="0"
   inkscape:deskcolor="#d1d1d1"
   showgrid="true"
   inkscape:clip-to-page="true"
   inkscape:zoom="1.2316035"
   inkscape:cx="159.14213"
   inkscape:cy="257.79401"
   inkscape:window-width="1920"
   inkscape:window-height="1129"
   inkscape:window-x="-8"
   inkscape:window-y="-8"
   inkscape:window-maximized="1"
   inkscape:current-layer="Layer_1"><inkscape:grid
     id="grid12"
     units="px"
     originx="0"
     originy="0"
     spacingx="0.99999999"
     spacingy="1"
     empcolor="#0099e5"
     empopacity="0.30196078"
     color="#0099e5"
     opacity="0.14902"
     empspacing="64"
     dotted="false"
     gridanglex="30"
     gridanglez="30"
     visible="true" /></sodipodi:namedview>&#10;<style
   type="text/css"
   id="style1">&#10;	.st0{fill:#80BC00;}&#10;</style>&#10;&#10;&#10;&#10;<path
   class="st0"
   d="m 497.15027,324.55159 c -19.065,62.115 -66.42,115.743 -124.107,145.263 -54.612,28.044 -135.915,41.082 -210.207,8.856 -99.999002,-43.542 -131.856,-113.898 -145.755,-157.071 -9.9629997,-31.119 -15.2520001,-66.912 -12.1769997,-99.138 3.198,-33.702 13.4069997,-66.297 29.7659997,-95.94 14.268,-25.83 33.578998,-48.093001 55.841998,-67.404001 11.070002,-9.593994 23.001002,-17.957994 35.793002,-24.968994 6.027,-3.198 12.054,-6.642 18.573,-8.733 6.273,-2.091 14.883,-5.781 21.402,-3.444 -1.353,-0.492 -8.241,3.69 -9.717,4.428 -1.107,0.492 -9.471,5.289 -9.717,5.166 2.829,-0.861 25.584,-10.578 26.814,-8.487 0,-0.123 -12.915,5.904 -12.915,5.781 0.492,0.861 17.466,-4.551 19.311,-5.412 -17.097,8.487 -34.194,17.22 -50.43,27.429 -4.305,2.706 -8.364,6.273 -12.669,8.732994 15.498,-9.470994 56.211,-31.487994 60.516,-33.455994 0.492,-0.246 0.984,2.091 0.984,2.214 -1.107,0.861 -2.337,1.599 -3.567,2.214 -2.337,1.353 -4.551,2.829 -7.011,4.059 1.599,-0.861 9.594,-5.535 11.685,-3.69 -0.123,-0.123 -15.867,9.963 -16.974,10.578 -5.904,3.444 -11.808,7.257 -17.958,10.455 10.701,-5.535 35.793,-17.835 37.515,-18.45 0.984,-0.369 7.011,1.23 7.011,1.599 0.615,1.722 -38.622,21.033 -42.435,23.369994 -13.53,8.241 -26.076,17.835 -37.638,28.536 -23.370002,21.402001 -41.697002,47.724001 -53.751,76.998001 -26.076,63.591 -19.926,135.792 14.021998,195.078 15.99,27.798 38.007002,51.537 64.575002,69.618 13.284,9.102 27.429,16.851 42.189,23.124 15.621,6.642 31.98,9.84 48.462,13.284 33.21,6.765 67.896,3.321 99.999,-6.396 16.113,-5.043 31.734,-11.685 46.494,-19.803 14.145,-7.749 26.076,-17.22 38.622,-27.183 24.6,-19.434 42.681,-49.077 55.719,-77.121 6.888,-14.883 10.701,-30.75 14.76,-46.494 3.813,-15.744 5.412,-31.857 4.551,-48.093 -1.353,-33.087 -9.348,-65.436 -23.493,-95.325 -7.011,-14.391 -15.744,-27.921 -25.83,-40.344 -7.749,-10.086001 -16.482,-19.434001 -25.83,-28.044001 -2.091,-1.968 -4.551,-3.69 -6.519,-5.781 0.861,-0.738 4.059,2.46 5.166,2.952 -3.936,-4.428 -9.225,-7.872 -13.899,-11.439 -2.337,-1.845 -15.252,-8.240994 -15.129,-10.700994 12.915,7.010994 24.969,16.604994 35.916,26.321994 5.781,5.166 21.402,22.017003 23.862,24.846001 0.984,1.23 2.091,2.952 3.69,3.69 -2.214,-5.412 -8.241,-11.069998 -12.054,-15.375001 -5.166,-6.027 -10.701,-11.808 -16.605,-17.097 -5.166,-4.674 -10.701,-8.979 -16.359,-13.038 -4.92,-3.566994 -11.685,-6.764994 -15.867,-11.069994 1.845,-1.23 13.038,7.38 15.006,8.609994 5.904,3.936 11.439,8.364 16.728,13.038 5.412,4.674 23.124,25.215003 27.798,28.536003 -1.23,-3.936 -6.027,-7.257003 -8.364,-10.209003 -1.599,-1.968 -15.375,-13.899 -14.76,-15.744 1.599,-0.738 7.995,6.642 9.225,7.749 0.861,0.861 4.059,4.551 5.043,4.305 -1.476,-0.984 -2.583,-3.321 -3.813,-4.551 -2.46,-2.46 -5.043,-4.797 -7.134,-7.626 2.091,-0.492 7.749,5.904 9.225,7.503 3.813,3.69 26.199,29.151001 27.798,32.595001 1.107,-1.23 -8.856,-13.161 -10.086,-14.636998 -1.353,-1.845 -14.268,-16.236003 -13.776,-16.851003 0.615,0.615 10.086,10.455 9.963,10.455 0.615,-0.369 -2.091,-1.968 -0.615,-2.46 4.182,4.551 8.979,9.717001 12.177,15.006001 0.492,0.738 2.46,1.599 3.321,2.706 0.861,1.23 3.567,6.765 5.289,6.888 0.369,-2.829 -11.439,-14.76 -9.84,-15.989998 12.669,14.267998 22.017,32.717998 29.766,50.060998 8.118,18.204 17.958,40.59 21.525,80.319 3.444,35.916 2.091,56.703 -9.102,95.202 -1.968,6.15 -0.246,-0.369 0,0"
   id="path2"
   style="display:inline;stroke-width:1.23" />&#10;&#10;<path
   class="st0"
   d="m 386.81927,48.293595 c 0,0.246 0,0.492 0,0.738 -1.107,-0.369 -11.931,-7.134 -16.728,-9.225 -0.615,-0.369 -1.353,-0.861 -2.214,-0.492 -1.722,-0.369 -3.321,-0.984 -4.92,-1.845 -0.861,-1.353 -2.46,-1.845 -3.813,-2.337 -3.567,-1.353 -6.765,-3.321 -10.455,-4.797 0.738,-0.123 1.476,0.123 2.214,0.492 11.931,4.428 23.493,10.086 34.563,16.605 0.492,0.123 0.861,0.492 1.353,0.861"
   id="path4"
   style="display:inline;stroke-width:1.23" />&#10;<path
   class="st0"
   d="m 401.08727,51.491595 c 1.722,0.492 3.444,1.353 4.797,2.583 4.674,3.443994 16.605,13.406994 18.081,14.759994 0.369,0.246 0.984,0.615 0.492,0.984 -0.492,0.369 -0.738,-0.123 -1.107,-0.369 -4.551,-4.305 -19.803,-15.989994 -22.263,-17.957994"
   id="path5"
   style="display:inline;stroke-width:1.23" />&#10;<path
   class="st0"
   d="m 423.35027,61.454589 c 3.813,3.075 7.503,6.396 11.07,9.84 2.091,1.968 4.182,4.182 6.15,6.273 0.492,0.369 0.861,0.861 1.107,1.353 l -0.246,0.246 c -2.583,-2.583 -14.883,-14.268 -18.45,-17.589 0.246,0 0.246,0 0.369,-0.123"
   id="path6"
   style="display:inline;stroke-width:1.23" />&#10;<path
   class="st0"
   d="m 433.80527,64.529589 c 0.246,0.123 0.492,0.369 0.861,0.615 5.289,4.797 10.209,9.963 15.006,15.252 0.246,0.246 0.492,0.492 0.492,0.984 -0.492,0.123 -0.615,-0.246 -0.861,-0.369 -5.043,-5.412 -15.621,-15.99 -15.744,-16.236 l 0.246,-0.246"
   id="path7"
   style="display:inline;stroke-width:1.23" />&#10;<path
   class="st0"
   d="m 461.72627,96.140592 c -2.46,-3.075003 -9.717,-11.931003 -10.824,-13.284003 -0.492,-0.369 -0.738,-0.861 -0.738,-1.476 1.107,0.861 2.214,1.845 3.075,2.952 2.46,3.075 8.61,10.455 8.979,11.316003 l -0.492,0.492"
   id="path8"
   style="display:inline;stroke-width:1.23" />&#10;<path
   class="st0"
   d="m 369.35327,35.993595 c 3.813,1.353 7.38,3.075 10.701,5.166 l -0.123,0.246 -10.578,-5.412"
   id="path9"
   style="display:inline;stroke-width:1.23" />&#10;<path
   class="st0"
   d="m 442.29227,78.182589 0.369,-0.369"
   id="path10"
   style="display:inline;stroke-width:1.23" />&#10;<path
   class="st0"
   d="m 437.61827,72.770589 -0.246,0.369"
   id="path11"
   style="display:inline;stroke-width:1.23" />&#10;<path
   class="st0"
   d="m 442.29227,77.444589 c -1.23,-1.722 -2.706,-3.198 -4.428,-4.428 l -4.428,-4.182 v 0 c -0.123,-0.123 -0.246,-0.246 -0.369,-0.123 -0.123,0.123 0,0.246 0.123,0.369 l 4.305,4.428 4.428,4.305 c 0.123,0.123 8.487,9.348 8.487,9.348 0.246,0.246 0.369,0.369 0.615,0.615 0.123,-0.246 0.246,-0.369 0.492,-0.492 -2.583,-3.198 -5.289,-6.15 -8.241,-8.856 0,0 -0.861,-0.861 -0.984,-0.984"
   id="path12"
   style="display:inline;stroke-width:1.23" />&#10;<path
   d="m 136.28036,193.98129 c 11.73223,16.68558 34.84352,20.72309 51.53869,9.01294 l 24.94512,19.05113 c -8.3885,17.29855 -7.40348,38.52858 4.41567,55.33778 6.28338,8.93623 14.77899,15.41238 24.23029,19.21379 l -8.15653,39.19183 c -5.27031,0.68384 -10.45411,2.60903 -15.09432,5.87173 -15.30582,10.76207 -19.00214,31.97062 -8.24007,47.27645 10.76207,15.30582 31.97013,19.00249 47.27596,8.24043 15.30583,-10.76208 19.00248,-31.97014 8.24041,-47.27596 -2.811,-3.99781 -6.33825,-7.19492 -10.28339,-9.55794 l 8.2815,-39.79188 c 10.36635,-0.2807 20.76301,-3.50115 29.86342,-9.89997 9.6721,-6.8008 16.46294,-16.19316 20.09879,-26.58412 l 20.50728,3.30331 c 0.83709,4.74203 2.69283,9.37827 5.64015,13.56995 10.76206,15.30582 31.97014,19.00249 47.27597,8.24042 15.30582,-10.76206 19.00248,-31.97015 8.24042,-47.27596 -10.76207,-15.30583 -31.97014,-19.00249 -47.27597,-8.24042 -4.44536,3.12569 -7.9037,7.13593 -10.32085,11.62316 l -21.12565,-3.40285 c -0.69709,-9.52594 -3.89344,-18.98548 -9.77519,-27.35051 -17.32746,-24.64312 -51.47212,-30.59513 -76.11524,-13.26767 -1.39062,0.97779 -2.71864,2.01206 -3.98915,3.09238 l -25.08186,-19.15524 c 3.92135,-10.95606 2.65493,-23.58617 -4.53219,-33.8077 -11.73909,-16.69626 -34.87467,-20.72852 -51.57162,-8.9883 -16.69794,11.74092 -20.73151,34.87676 -8.99164,51.57322 z"
   id="path1-5"
   style="display:none;fill:#80bc00;fill-opacity:1;stroke:#76ad00;stroke-width:1.05217;stroke-dasharray:none;stroke-opacity:1;image-rendering:auto" /><g
   id="g5"
   transform="matrix(0.39609891,0,0,0.39609891,139.88481,123.06234)"
   style="display:none;fill:#80bc00;fill-opacity:1;stroke:#7cb600;stroke-width:2.52462;stroke-dasharray:none;stroke-opacity:1">&#10;	<g
   id="g4"
   style="fill:#80bc00;fill-opacity:1;stroke:#7cb600;stroke-width:2.52462;stroke-dasharray:none;stroke-opacity:1">&#10;		<path
   d="M 545.325,500.685 H 66.675 c -30.737,0 -55.657,24.92 -55.657,55.657 0,30.737 24.92,55.657 55.657,55.657 h 478.65 c 30.737,0 55.657,-24.92 55.657,-55.657 0,-30.738 -24.92,-55.657 -55.657,-55.657 z"
   id="path1"
   style="fill:#80bc00;fill-opacity:1;stroke:#7cb600;stroke-width:2.52462;stroke-dasharray:none;stroke-opacity:1" />&#10;		<path
   d="m 129.753,464.922 c 30.737,0 55.657,-24.92 55.657,-55.657 v -212.61 c 0,-30.737 -24.92,-55.657 -55.657,-55.657 -30.737,0 -55.657,24.92 -55.657,55.657 v 212.61 c -0.001,30.737 24.92,55.657 55.657,55.657 z"
   id="path2-7"
   style="fill:#80bc00;fill-opacity:1;stroke:#7cb600;stroke-width:2.52462;stroke-dasharray:none;stroke-opacity:1" />&#10;		<path
   d="m 306.002,464.922 c 30.737,0 55.657,-24.92 55.657,-55.657 V 126.157 c 0,-30.737 -24.92,-55.657 -55.657,-55.657 -30.737,0 -55.657,24.92 -55.657,55.657 v 283.108 c 0,30.737 24.918,55.657 55.657,55.657 z"
   id="path3"
   style="fill:#80bc00;fill-opacity:1;stroke:#7cb600;stroke-width:2.52462;stroke-dasharray:none;stroke-opacity:1" />&#10;		<path
   d="m 482.245,464.922 c 30.737,0 55.655,-24.92 55.655,-55.657 V 55.657 C 537.903,24.92 512.984,0 482.245,0 451.508,0 426.588,24.92 426.588,55.657 v 353.607 c 0,30.738 24.92,55.658 55.657,55.658 z"
   id="path4-2"
   style="fill:#80bc00;fill-opacity:1;stroke:#7cb600;stroke-width:2.52462;stroke-dasharray:none;stroke-opacity:1" />&#10;	</g>&#10;</g><g
   id="g8"
   transform="matrix(0.50611408,0,0,0.50611408,113.08314,56.246443)"
   style="display:none;fill:#80bc00;fill-opacity:1;stroke:#80bc00;stroke-width:1.87113;stroke-dasharray:none;stroke-opacity:1">&#10;	<g
   id="g7"
   style="fill:#80bc00;fill-opacity:1;stroke:#80bc00;stroke-width:1.87113;stroke-dasharray:none;stroke-opacity:1">&#10;		<path
   d="m 175.205,239.62 c 0.127,-1.965 -0.533,-3.902 -1.833,-5.381 l -58.84,-66.941 c -1.3,-1.479 -3.135,-2.381 -5.102,-2.508 -1.975,-0.126 -3.902,0.533 -5.381,1.833 -27.037,23.766 -49.479,51.794 -66.706,83.305 -0.944,1.729 -1.165,3.762 -0.611,5.651 0.554,1.89 1.836,3.483 3.565,4.427 l 78.205,42.748 c 1.131,0.619 2.352,0.912 3.557,0.912 2.627,0 5.174,-1.398 6.523,-3.866 11.386,-20.828 26.229,-39.359 44.114,-55.08 1.482,-1.298 2.384,-3.133 2.509,-5.1 z"
   id="path1-9"
   style="fill:#80bc00;fill-opacity:1;stroke:#80bc00;stroke-width:1.87113;stroke-dasharray:none;stroke-opacity:1" />&#10;		<path
   d="m 201.462,214.829 c 1.334,2.515 3.907,3.948 6.568,3.948 1.174,0 2.365,-0.279 3.473,-0.867 20.962,-11.117 43.512,-18.371 67.025,-21.561 4.064,-0.551 6.913,-4.293 6.362,-8.358 L 272.911,99.675 c -0.551,-4.064 -4.304,-6.909 -8.358,-6.362 -35.708,4.843 -69.949,15.857 -101.772,32.736 -3.623,1.922 -5.002,6.416 -3.082,10.041 z"
   id="path2-4"
   style="fill:#80bc00;fill-opacity:1;stroke:#80bc00;stroke-width:1.87113;stroke-dasharray:none;stroke-opacity:1" />&#10;		<path
   d="M 105.785,334.345 19.768,311.007 c -1.901,-0.514 -3.929,-0.255 -5.638,0.725 -1.709,0.98 -2.958,2.598 -3.475,4.499 C 3.586,342.295 0,369.309 0,396.523 c 0,4.657 0.111,9.329 0.342,14.284 0.185,3.981 3.468,7.083 7.414,7.083 0.116,0 0.234,-0.002 0.35,-0.008 l 89.031,-4.113 c 1.967,-0.09 3.82,-0.96 5.145,-2.415 1.327,-1.455 2.022,-3.38 1.93,-5.347 -0.155,-3.341 -0.23,-6.444 -0.23,-9.484 0,-18.02 2.365,-35.873 7.029,-53.066 1.071,-3.958 -1.268,-8.037 -5.226,-9.112 z"
   id="path3-4"
   style="fill:#80bc00;fill-opacity:1;stroke:#80bc00;stroke-width:1.87113;stroke-dasharray:none;stroke-opacity:1" />&#10;		<path
   d="M 438.731,120.745 C 406.32,105.12 371.691,95.437 335.806,91.959 c -1.972,-0.198 -3.918,0.408 -5.439,1.659 -1.521,1.252 -2.481,3.056 -2.671,5.018 l -8.593,88.712 c -0.396,4.082 2.594,7.713 6.677,8.108 23.652,2.291 46.463,8.669 67.8,18.954 1.015,0.49 2.118,0.738 3.225,0.738 0.826,0 1.654,-0.139 2.45,-0.416 1.859,-0.649 3.385,-2.012 4.24,-3.786 l 38.7,-80.287 c 1.783,-3.694 0.232,-8.134 -3.464,-9.914 z"
   id="path4-7"
   style="fill:#80bc00;fill-opacity:1;stroke:#80bc00;stroke-width:1.87113;stroke-dasharray:none;stroke-opacity:1" />&#10;		<path
   d="m 569.642,245.337 c 0.48,-1.911 0.184,-3.932 -0.828,-5.624 -18.432,-30.835 -41.933,-57.983 -69.848,-80.686 -1.529,-1.242 -3.48,-1.824 -5.447,-1.627 -1.959,0.203 -3.758,1.174 -5,2.702 l -56.237,69.144 c -1.242,1.529 -1.828,3.488 -1.625,5.447 0.201,1.959 1.173,3.758 2.702,5.002 18.47,15.019 34.015,32.975 46.205,53.369 1.392,2.326 3.855,3.618 6.383,3.618 1.297,0 2.61,-0.34 3.803,-1.054 L 566.251,249.9 c 1.689,-1.011 2.909,-2.652 3.391,-4.563 z"
   id="path5-0"
   style="fill:#80bc00;fill-opacity:1;stroke:#80bc00;stroke-width:1.87113;stroke-dasharray:none;stroke-opacity:1" />&#10;		<path
   d="m 598.044,304.939 c -1.228,-3.915 -5.397,-6.096 -9.308,-4.867 l -85.048,26.648 c -3.915,1.226 -6.093,5.393 -4.867,9.306 6.104,19.486 9.199,39.839 9.199,60.494 0,3.041 -0.076,6.144 -0.23,9.484 -0.092,1.967 0.602,3.892 1.93,5.347 1.327,1.456 3.178,2.325 5.145,2.415 l 89.031,4.113 c 0.118,0.005 0.234,0.008 0.35,0.008 3.944,0 7.228,-3.103 7.414,-7.083 0.229,-4.955 0.342,-9.627 0.342,-14.284 -0.002,-31.214 -4.696,-62.026 -13.958,-91.581 z"
   id="path6-6"
   style="fill:#80bc00;fill-opacity:1;stroke:#80bc00;stroke-width:1.87113;stroke-dasharray:none;stroke-opacity:1" />&#10;		<path
   d="m 305.737,380.755 c -1.281,0 -2.555,0.042 -3.824,0.11 L 181.263,309.68 c -2.953,-1.745 -6.702,-1.308 -9.176,1.065 -2.476,2.371 -3.07,6.099 -1.456,9.121 l 65.815,123.355 c -0.242,2.376 -0.371,4.775 -0.371,7.195 0,18.608 7.246,36.101 20.403,49.258 13.158,13.158 30.652,20.404 49.26,20.404 18.608,0 36.101,-7.248 49.258,-20.404 13.158,-13.157 20.403,-30.65 20.403,-49.258 0,-18.608 -7.246,-36.101 -20.403,-49.258 -13.157,-13.157 -30.652,-20.403 -49.259,-20.403 z"
   id="path7-8"
   style="fill:#80bc00;fill-opacity:1;stroke:#80bc00;stroke-width:1.87113;stroke-dasharray:none;stroke-opacity:1" />&#10;	</g>&#10;</g><path
   d="m 190.20713,255.69677 h -43.41726 c -6.51258,0 -10.85431,4.34172 -10.85431,10.85432 0,0 0,0 0,0 v 86.83452 c 0,6.51259 4.34173,10.85432 10.85431,10.85432 0,0 0,0 0,0 h 43.41726 c 6.5126,0 10.85432,-4.34173 10.85432,-10.85432 0,0 0,0 0,0 v -86.83452 c 0,-6.5126 -4.34172,-10.85432 -10.85432,-10.85432 z m 173.66905,-43.41726 h -43.41726 c -6.51259,0 -10.85431,4.34172 -10.85431,10.85432 0,0 0,0 0,0 v 130.25178 c 0,6.51259 4.34172,10.85432 10.85431,10.85432 0,0 0,0 0,0 h 43.41726 c 6.5126,0 10.85432,-4.34173 10.85432,-10.85432 0,0 0,0 0,0 V 223.13383 c 0,-6.5126 -4.34172,-10.85432 -10.85432,-10.85432 z M 277.04166,125.44499 H 233.6244 c -6.51259,0 -10.85432,4.34172 -10.85432,10.85432 0,0 0,0 0,0 v 217.0863 c 0,6.51259 4.34173,10.85432 10.85432,10.85432 0,0 0,0 0,0 h 43.41726 c 6.5126,0 10.85431,-4.34173 10.85431,-10.85432 0,0 0,0 0,0 v -217.0863 c 0,-6.5126 -4.34171,-10.85432 -10.85431,-10.85432 z"
   id="path1-51"
   style="display:inline;fill:#80bc00;fill-opacity:1;stroke:#70a400;stroke-width:1.06106;stroke-dasharray:none;stroke-opacity:1" /><path
   d="M 178.33812,257.69297 H 127.2782 c -7.65897,0 -12.76497,5.10599 -12.76497,12.76499 0,0 0,0 0,0 v 102.11982 c 0,7.65899 5.106,12.76499 12.76497,12.76499 0,0 0,0 0,0 h 51.05992 c 7.65899,0 12.76498,-5.106 12.76498,-12.76499 0,0 0,0 0,0 V 270.45796 c 0,-7.659 -5.10599,-12.76499 -12.76498,-12.76499 z m 204.23966,-51.05991 h -51.05991 c -7.65898,0 -12.76497,5.10598 -12.76497,12.76498 0,0 0,0 0,0 v 153.17974 c 0,7.65899 5.10599,12.76499 12.76497,12.76499 0,0 0,0 0,0 h 51.05991 c 7.65901,0 12.76499,-5.106 12.76499,-12.76499 0,0 0,0 0,0 V 219.39804 c 0,-7.659 -5.10598,-12.76498 -12.76499,-12.76498 z M 280.45796,104.51323 h -51.05992 c -7.65898,0 -12.76498,5.10598 -12.76498,12.76499 0,0 0,0 0,0 v 255.29956 c 0,7.65899 5.106,12.76499 12.76498,12.76499 0,0 0,0 0,0 h 51.05992 c 7.659,0 12.76497,-5.106 12.76497,-12.76499 0,0 0,0 0,0 V 117.27822 c 0,-7.65901 -5.10597,-12.76499 -12.76497,-12.76499 z"
   id="path1-51-1"
   style="display:none;fill:#80bc00;fill-opacity:1;stroke:#70a400;stroke-width:1.24783;stroke-dasharray:none;stroke-opacity:1" /></svg>
